<svg width="32" height="32" viewBox="0 0 24 24" fill="none" xmlns="http://www.w3.org/2000/svg">
  <defs>
    <linearGradient id="leafGradient" x1="0%" y1="0%" x2="100%" y2="100%">
      <stop offset="0%" style="stop-color:#10b981;stop-opacity:1" />
      <stop offset="100%" style="stop-color:#059669;stop-opacity:1" />
    </linearGradient>
  </defs>
  <!-- Main leaf shape matching Lucide Leaf icon exactly -->
  <path d="M11 20A7 7 0 0 0 9.8 6.1C15.5 5 17 4.48 19 2c1 2 2 4.18 2 8 0 5.5-4.78 10-10 10Z" fill="url(#leafGradient)"/>
  <path d="M2 21c0-3 1.85-5.36 5.24-6.04A10 10 0 0 1 8 3.03c.1-.6-.4-1.03-1-1.03s-1.1.43-1 1.03a10 10 0 0 1-1.24 11.93C2.15 15.64 2 18 2 21Z" fill="url(#leafGradient)" opacity="0.7"/>
  <!-- Stem line -->
  <path d="M11 20v-2" stroke="url(#leafGradient)" stroke-width="2" stroke-linecap="round"/>
</svg>
